<svg xmlns="http://www.w3.org/2000/svg" width="85.492" height="68.141" viewBox="0 0 85.492 68.141"><path id="Path_11110" data-name="Path 11110" d="M106.251,16.391c0,2.839,0,6.94.315,12.619,0,5.678.315,9.78.315,12.3a88.955,88.955,0,0,1-.631,13.565,71.117,71.117,0,0,1-1.893,11.357A24.005,24.005,0,0,1,99.942,75.7a20.645,20.645,0,0,1-7.571,5.994A25.184,25.184,0,0,1,81.014,83.9l-8.833-16.72c6.309,0,10.41-1.262,13.25-4.1,2.524-2.524,3.786-6.94,3.786-12.934H72.181V16.075h34.071Zm-51.106,0c0,2.839,0,6.94.315,12.619,0,5.678.315,9.78.315,12.3,0,5.047,0,9.78-.315,13.565a71.118,71.118,0,0,1-1.893,11.357A24.006,24.006,0,0,1,49.151,75.7a20.646,20.646,0,0,1-7.571,5.994A25.183,25.183,0,0,1,30.223,83.9L21.705,66.866c5.994,0,10.411-1.262,12.934-4.1,2.524-2.524,3.786-6.94,3.786-12.934H21.39V15.76H55.145Z" transform="translate(-21.39 -15.76)" fill="#d5d5d5"/></svg>