<svg xmlns="http://www.w3.org/2000/svg" width="48" height="48" viewBox="0 0 48 48"><g id="Group_1092" data-name="Group 1092" transform="translate(-251.14 -25)"><rect id="Rectangle_4592" data-name="Rectangle 4592" width="48" height="48" rx="5" transform="translate(251.14 25)" fill="rgba(0,0,0,0.26)"/><g id="noun-menu-1145763" transform="translate(262.907 36.911)"><path id="Path_11121" data-name="Path 11121" d="M232.392,352.8H211.428a1.431,1.431,0,0,0,0,2.863h20.964a1.431,1.431,0,0,0,0-2.863Z" transform="translate(-209.999 -331.84)" fill="#fff"/><path id="Path_11122" data-name="Path 11122" d="M224.762,263.2H210.941c-.534,0-.942.62-.942,1.431s.408,1.431.942,1.431h13.821c.534,0,.942-.62.942-1.431S225.3,263.2,224.762,263.2Z" transform="translate(-209.999 -252.72)" fill="#e2111b"/><path id="Path_11123" data-name="Path 11123" d="M211.428,176.461h20.964a1.431,1.431,0,0,0,0-2.863H211.428a1.431,1.431,0,0,0,0,2.862Z" transform="translate(-209.999 -173.598)" fill="#fff"/></g></g></svg>